#!OML:ASF F:\twosubjects\two\wednesday\Session 1\rory1.ASF
:FULLY-SPECIFIED
:DEGREES
910
root 25.3579 16.5653 14.7941 190.86 -41.2262 -185.975
lowerback 8.71708 3.28165 6.67316
upperback 3.49254 4.68368 2.47618
thorax -0.903528 2.2639 -1.58568
lowerneck -12.2039 4.64563 3.88132
upperneck 8.16506 6.91184 -13.3633
head 5.09484 2.57596 -4.25535
rclavicle 6.67916e-014 2.06736e-014
rhumerus -2.885 2.92523 -80.2703
rradius 40.9526
rwrist -11.2433
rhand -25.8139 43.7828
rfingers 7.12502
rthumb 0.725457 13.8043
lclavicle 6.67916e-014 2.06736e-014
lhumerus -50.6418 4.39931 80.9509
lradius 42.5105
lwrist 6.47597
lhand -23.3281 8.18075
lfingers 7.12502
lthumb 3.12624 -321.862
rfemur -20.749 -6.56422 20.7116
rtibia 79.1507
rfoot -15.7008 -11.4517
rtoes -9.98881
lfemur -45.9612 22.114 -30.2214
ltibia 77.0234
lfoot -20.8339 -6.90077
ltoes -15.1927
911
root 25.4015 16.5182 14.6031 190.067 -42.435 -186.108
lowerback 9.15091 2.92448 6.33823
upperback 3.77271 4.17928 2.73482
thorax -0.932901 1.99967 -1.11026
lowerneck -12.0415 4.62828 3.76127
upperneck 8.13987 6.89599 -13.274
head 5.05029 2.57757 -4.21062
rclavicle 1.07344e-013 -6.04305e-014
rhumerus -2.69628 3.80378 -79.8351
rradius 41.0172
rwrist -11.15
rhand -25.2362 43.6516
rfingers 7.12502
rthumb 1.2834 13.6757
lclavicle 1.07344e-013 -6.04305e-014
lhumerus -49.9805 4.40475 81.1211
lradius 42.9704
lwrist 6.90649
lhand -23.4301 8.14659
lfingers 7.12502
lthumb 3.02771 -321.895
rfemur -21.4855 -7.1541 20.0826
rtibia 82.208
rfoot -13.5847 -7.59356
rtoes -9.42613
lfemur -44.3951 21.2287 -29.486
ltibia 77.3057
lfoot -22.6711 -4.0206
ltoes -6.64896
912
root 25.452 16.4471 14.4252 188.63 -43.4257 -185.259
lowerback 9.75887 2.72675 6.74013
upperback 4.01604 3.95187 3.09654
thorax -1.02123 1.86883 -0.962246
lowerneck -11.7424 4.61843 3.93774
upperneck 8.04465 6.84579 -13.2209
head 4.96887 2.58126 -4.23106
rclavicle -9.78021e-014 -1.74931e-014
rhumerus -2.57512 3.97254 -79.4603
rradius 41.1096
rwrist -10.8827
rhand -24.7248 43.8809
rfingers 7.12502
rthumb 1.77734 13.9086
lclavicle -9.78021e-014 -1.74931e-014
lhumerus -49.2741 3.95286 81.3523
lradius 43.5359
lwrist 7.25581
lhand -21.303 8.66151
lfingers 7.12502
lthumb 5.08179 -321.419
rfemur -22.5109 -7.42071 20.074
rtibia 85.3049
rfoot -11.0016 -4.61524
rtoes -27.8516
lfemur -43.1033 20.3054 -27.8939
ltibia 77.7424
lfoot -23.6029 -4.42058
ltoes -1.61317
913
root 25.488 16.3716 14.2541 187.372 -44.0097 -184.667
lowerback 10.5761 2.64756 7.1253
upperback 4.04768 3.93546 3.27831
thorax -1.41983 1.8386 -1.0255
lowerneck -11.4125 4.53254 4.08882
upperneck 8.31179 6.72091 -12.9994
head 4.97832 2.54692 -4.20213
rclavicle -9.85972e-014 -6.20208e-014
rhumerus -2.96752 4.08852 -79.1088
rradius 41.3268
rwrist -10.5152
rhand -24.8682 43.8679
rfingers 7.12502
rthumb 1.63885 13.8944
lclavicle -9.85972e-014 -6.20208e-014
lhumerus -48.7946 3.13456 81.6036
lradius 44.0344
lwrist 7.19512
lhand -21.4932 9.10504
lfingers 7.12502
lthumb 4.89811 -320.972
rfemur -23.6354 -7.65179 19.4437
rtibia 88.4164
rfoot -11.7499 -4.51877
rtoes -17.4776
lfemur -41.6303 19.3318 -26.3791
ltibia 78.14
lfoot -25.1019 -3.49487
ltoes -7.86783
914
root 25.5104 16.2989 14.0911 187.138 -44.4061 -185.146
lowerback 11.0901 2.59039 6.77818
upperback 4.07209 3.86858 3.30265
thorax -1.70761 1.7925 -0.827514
lowerneck -11.3389 4.47252 4.17996
upperneck 8.57393 6.65887 -13.0561
head 5.04555 2.50863 -4.24293
rclavicle -5.56597e-014 -3.33958e-014
rhumerus -3.06765 4.51311 -78.6069
rradius 41.3609
rwrist -10.3856
rhand -24.4905 43.5368
rfingers 7.12502
rthumb 2.00366 13.5664
lclavicle -5.56597e-014 -3.33958e-014
lhumerus -47.8752 2.93569 81.8707
lradius 44.095
lwrist 6.42107
lhand -24.9744 9.05296
lfingers 7.12502
lthumb 1.53625 -320.973
rfemur -25.2739 -8.07225 17.5806
rtibia 91.56
rfoot -12.4289 -4.65302
rtoes -10.5912
lfemur -40.2835 17.9373 -25.6725
ltibia 78.2719
lfoot -26.8654 -2.50812
ltoes -14.3324
915
root 25.5362 16.2238 13.9367 186.989 -44.6096 -185.489
lowerback 11.4011 2.50803 6.5103
upperback 4.25835 3.73078 3.38785
thorax -1.71505 1.71652 -0.585158
lowerneck -11.5063 4.66517 4.14478
upperneck 8.64871 6.9545 -13.2788
head 5.13253 2.62415 -4.27949
rclavicle 6.44062e-014 -1.59028e-015
rhumerus -2.34117 4.83319 -78.1687
rradius 41.0263
rwrist -10.24
rhand -23.6397 43.2498
rfingers 7.12502
rthumb 2.82535 13.2888
lclavicle 6.44062e-014 -1.59028e-015
lhumerus -46.7983 2.75536 82.081
lradius 44.3612
lwrist 6.11229
lhand -26.7554 8.90564
lfingers 7.12502
lthumb -0.183811 -321.115
rfemur -27.3829 -8.23542 15.7055
rtibia 94.4291
rfoot -12.5375 -6.29744
rtoes -8.71772
lfemur -39.2098 16.3894 -24.7923
ltibia 78.2574
lfoot -28.2018 -2.86129
ltoes -14.9422
916
root 25.5669 16.149 13.7833 186.511 -44.5311 -185.494
lowerback 11.8242 2.51887 6.49382
upperback 4.51032 3.73614 3.48338
thorax -1.68739 1.70965 -0.489561
lowerneck -11.4657 4.9089 4.18846
upperneck 8.53593 7.2843 -13.4125
head 5.12881 2.78282 -4.29913
rclavicle 1.19271e-013 3.18055e-014
rhumerus -1.58979 4.74992 -77.8821
rradius 40.6967
rwrist -9.53895
rhand -23.2317 43.0975
rfingers 7.12502
rthumb 3.21937 13.1421
lclavicle 1.19271e-013 3.18055e-014
lhumerus -45.6048 2.49602 82.3564
lradius 44.5997
lwrist 5.85809
lhand -27.3624 9.50138
lfingers 7.12502
lthumb -0.77012 -320.52
rfemur -29.4714 -7.93554 13.958
rtibia 96.76
rfoot -12.7129 -8.50755
rtoes -7.11646
lfemur -38.0222 15.1336 -23.5602
ltibia 78.2183
lfoot -29.105 -3.8478
ltoes -14.5759
917
root 25.5969 16.0762 13.6344 186.114 -44.21 -185.648
lowerback 12.2437 2.63032 6.4267
upperback 4.87383 3.85134 3.55224
thorax -1.53566 1.75862 -0.403437
lowerneck -11.2865 5.07 4.24584
upperneck 8.03753 7.46119 -13.5985
head 4.97264 2.88508 -4.35283
rclavicle -1.66979e-014 3.33958e-014
rhumerus -0.846433 4.86901 -77.4149
rradius 40.5153
rwrist -9.13078
rhand -23.8574 43.1755
rfingers 7.12502
rthumb 2.61512 13.2118
lclavicle -1.66979e-014 3.33958e-014
lhumerus -44.2772 2.2733 82.716
lradius 44.7741
lwrist 5.54126
lhand -28.4142 9.34995
lfingers 7.12502
lthumb -1.78595 -320.678
rfemur -31.691 -7.3898 11.7837
rtibia 98.57
rfoot -13.4449 -9.47742
rtoes -1.69655
lfemur -36.8495 14.1972 -22.5191
ltibia 78.3182
lfoot -29.949 -4.45048
ltoes -17.0573
918
root 25.6275 16.0017 13.49 185.877 -43.6944 -185.907
lowerback 12.7613 2.68654 6.33773
upperback 5.2457 3.89225 3.6108
thorax -1.43181 1.76638 -0.31144
lowerneck -11.1336 5.33186 4.13521
upperneck 7.25715 7.77247 -13.9143
head 4.74904 3.04669 -4.40784
rclavicle -5.88403e-014 5.24792e-014
rhumerus 0.0365074 5.42429 -76.8935
rradius 40.4386
rwrist -9.23802
rhand -24.8161 43.518
rfingers 7.12502
rthumb 1.68913 13.545
lclavicle -5.88403e-014 5.24792e-014
lhumerus -42.884 2.4813 82.9771
lradius 44.8687
lwrist 5.19289
lhand -29.0727 7.48829
lfingers 7.12502
lthumb -2.42187 -322.546
rfemur -34.1504 -6.6861 9.43677
rtibia 99.6921
rfoot -14.0325 -10.2491
rtoes 1.73615
lfemur -35.9524 13.5732 -21.7128
ltibia 78.6091
lfoot -30.5348 -4.95286
ltoes -19.3384
919
root 25.6652 15.9237 13.3444 185.816 -43.0186 -186.489
lowerback 13.5658 2.77189 5.94771
upperback 5.51717 3.97218 3.57606
thorax -1.60237 1.7855 -0.172912
lowerneck -10.8043 5.63875 4.3862
upperneck 6.38521 8.10547 -14.5506
head 4.50183 3.2225 -4.62639
rclavicle -7.15625e-015 4.6118e-014
rhumerus 0.823852 5.89699 -76.5249
rradius 40.2871
rwrist -9.29086
rhand -25.9704 43.9771
rfingers 7.12502
rthumb 0.574306 13.9981
lclavicle -7.15625e-015 4.6118e-014
lhumerus -41.8178 2.4273 83.1737
lradius 45.2656
lwrist 5.30368
lhand -29.7278 7.22752
lfingers 7.12502
lthumb -3.05457 -322.815
rfemur -36.5974 -5.75223 6.87176
rtibia 100.046
rfoot -14.2746 -11.4562
rtoes 1.15592
lfemur -35.086 13.3484 -21.2688
ltibia 78.9841
lfoot -30.9718 -5.34098
ltoes -19.734
920
root 25.7051 15.8464 13.2028 185.782 -42.2299 -187.321
lowerback 14.5517 2.94499 5.39916
upperback 5.86512 4.13892 3.45834
thorax -1.79052 1.84359 -0.0531659
lowerneck -10.6616 5.93918 4.79188
upperneck 5.6519 8.4228 -15.2222
head 4.33955 3.38218 -4.88023
rclavicle -3.89618e-014 -4.77083e-015
rhumerus 1.7872 6.01549 -76.1683
rradius 39.8098
rwrist -8.61305
rhand -27.1098 44.8936
rfingers 7.12502
rthumb -0.526156 14.9145
lclavicle -3.89618e-014 -4.77083e-015
lhumerus -40.9177 2.07069 83.3549
lradius 46.0635
lwrist 5.79954
lhand -30.2622 8.46581
lfingers 7.12502
lthumb -3.57067 -321.584
rfemur -39.0082 -4.53526 3.98572
rtibia 99.6656
rfoot -14.3233 -11.9093
rtoes 1.80927
lfemur -34.1024 13.4762 -21.1937
ltibia 79.4195
lfoot -31.6574 -4.97076
ltoes -20.2051
921
root 25.7408 15.7812 13.0629 185.395 -41.4368 -187.73
lowerback 15.6096 3.05197 5.26459
upperback 6.25893 4.24914 3.39217
thorax -1.93647 1.87018 -0.104068
lowerneck -10.5777 6.31247 5.09783
upperneck 4.88659 8.8379 -15.8373
head 4.18598 3.58981 -5.0904
rclavicle 7.15625e-014 6.36111e-015
rhumerus 2.67077 5.89283 -75.9657
rradius 39.6015
rwrist -7.59171
rhand -26.2987 45.4625
rfingers 7.12502
rthumb 0.257295 15.4829
lclavicle 7.15625e-014 6.36111e-015
lhumerus -40.0948 1.96931 83.4695
lradius 47.0489
lwrist 6.42925
lhand -30.8435 9.74051
lfingers 7.12502
lthumb -4.13201 -320.32
rfemur -41.2824 -3.0021 1.44177
rtibia 98.3567
rfoot -14.3223 -11.6929
rtoes 4.64064
lfemur -33.2023 13.8634 -20.9121
ltibia 80.0119
lfoot -32.2481 -3.7391
ltoes -22.3154
922
root 25.7759 15.7263 12.9191 184.871 -40.8199 -187.838
lowerback 16.6031 3.01184 5.4656
upperback 6.59921 4.20836 3.31796
thorax -2.0764 1.82443 -0.323567
lowerneck -10.1616 6.73449 5.69276
upperneck 3.82458 9.26082 -16.7253
head 3.9235 3.82228 -5.44306
rclavicle 8.74653e-015 -6.67916e-014
rhumerus 3.49099 6.08282 -75.9138
rradius 39.6917
rwrist -7.62294
rhand -24.9243 44.5227
rfingers 7.12502
rthumb 1.58466 14.5489
lclavicle 8.74653e-015 -6.67916e-014
lhumerus -39.3338 2.03026 83.4683
lradius 47.9876
lwrist 7.21798
lhand -31.5488 10.0929
lfingers 7.12502
lthumb -4.81303 -319.982
rfemur -43.2679 -1.51785 -0.706587
rtibia 96.0548
rfoot -14.3944 -11.3754
rtoes 8.20535
lfemur -32.5575 14.2554 -20.4386
ltibia 80.7652
lfoot -32.4806 -1.74218
ltoes -26.2057
923
root 25.8183 15.6705 12.7687 184.432 -40.4717 -187.972
lowerback 17.496 2.88501 5.55453
upperback 6.95728 4.02637 3.30886
thorax -2.16 1.70583 -0.380704
lowerneck -9.84185 7.20173 6.14586
upperneck 2.78649 9.75348 -17.5923
head 3.69462 4.08274 -5.75924
rclavicle -6.67916e-014 3.18055e-014
rhumerus 4.79522 6.59647 -75.7782
rradius 39.2782
rwrist -7.87788
rhand -26.3248 44.2949
rfingers 7.12502
rthumb 0.232039 14.3153
lclavicle -6.67916e-014 3.18055e-014
lhumerus -38.6243 1.96687 83.5192
lradius 49.0451
lwrist 8.16266
lhand -31.3896 8.85046
lfingers 7.12502
lthumb -4.65938 -321.221
rfemur -44.8874 -0.326547 -2.67419
rtibia 92.8555
rfoot -14.1016 -11.5076
rtoes 8.68229
lfemur -32.1377 14.3825 -19.9659
ltibia 81.6507
lfoot -32.3273 0.641444
ltoes -31.0139
924
root 25.8673 15.6212 12.6047 183.759 -40.4831 -187.806
lowerback 18.3153 2.65416 5.546
upperback 7.31107 3.68368 3.58581
thorax -2.2392 1.49572 -0.0444883
lowerneck -9.61809 7.77815 6.3075
upperneck 1.99306 10.4495 -18.379
head 3.5688 4.42773 -5.9806
rclavicle 7.95139e-016 7.63333e-014
rhumerus 6.16314 7.22994 -75.5305
rradius 38.7216
rwrist -7.77066
rhand -28.3528 45.2403
rfingers 7.12502
rthumb -1.72668 15.2675
lclavicle 7.95139e-016 7.63333e-014
lhumerus -38.1284 2.06856 83.6496
lradius 50.227
lwrist 9.21864
lhand -31.0359 7.85243
lfingers 7.12502
lthumb -4.31777 -322.212
rfemur -45.8459 1.20704 -4.52027
rtibia 88.7658
rfoot -14.4607 -10.6931
rtoes 13.0065
lfemur -31.7235 14.1445 -19.0733
ltibia 82.6908
lfoot -31.857 1.83535
ltoes -32.8033
